<svg xmlns="http://www.w3.org/2000/svg">
  <defs>
    <g id="help-icon" fill="hsl(0, 0%, 50%)">
      <path d="M500.1 9.9C229.4 9.9 10 229.1 10 499.8s219.4 490.3 490.1 490.3S990 770.5 990 499.8C990 229.1 770.7 9.9 500.1 9.9zm.2 869.3c-209.5 0-379.6-169.9-379.6-379.5 0-209.4 170-379 379.6-379 209.2 0 379 169.6 379 379-.1 209.7-169.8 379.5-379 379.5z"/><path d="M457.7 645.5h93v-72.7c0-19.6 9.2-38 33.8-54.2 24.3-16.1 92.7-48.6 92.7-134.1 0-85.7-71.8-144.7-132-157.2-60.5-12.5-125.9-4.3-172.1 46.5-41.6 45.3-50.3 81.5-50.3 160.9h93v-18.6c0-42.1 4.9-86.9 65.4-99.1 33-6.7 64 3.8 82.3 21.6 21.1 20.6 21.1 66.7-12.3 89.9L498.7 464c-30.6 19.8-40.9 41.6-40.9 73.7v107.8h-.1zM504.3 681.9c26.3 0 47.8 21.4 47.8 47.9s-21.5 47.8-47.8 47.8c-26.6 0-48.3-21.4-48.3-47.8.1-26.5 21.7-47.9 48.3-47.9z"/>
    </g>
    <g id="stats-icon" fill="hsl(0, 0%, 50%)">
      <path d="M128 496H48V304h80zM352 496h-80V208h80zM464 496h-80V96h80zM240 496h-80V16h80z"/>
    </g>
    <g id="settings-icon" fill="hsl(0, 0%, 50%)">
      <path d="m199 376-87 26-48-84 67-62-67-62 48-84 87 26 21-88h96l21 88 87-26 48 84-67 62 67 62-48 84-87-26-21 88h-96l-21-88zm70-56q27 0 45-19 17-19 17-47 0-27-18-44-18-18-44-18-28 0-46 18-19 18-19 46 0 27 19 46 18 18 46 18z"/>
    </g>
    <g id="backspace-icon" fill="#ffffff">
      <path d="M490.667 64h-357.59a21.333 21.333 0 0 0-17.848 9.647L3.485 244.314a21.334 21.334 0 0 0 0 23.372l111.744 170.667A21.333 21.333 0 0 0 133.077 448h357.589c11.782 0 21.333-9.551 21.333-21.333V85.333C512 73.551 502.449 64 490.667 64zm-21.334 341.333H144.609L46.833 256l97.776-149.333h324.725v298.666z"/><path d="M198.246 356.418c8.331 8.331 21.839 8.331 30.17 0l70.248-70.248 70.248 70.248c8.331 8.331 21.839 8.331 30.17 0s8.331-21.839 0-30.17L328.834 256l70.248-70.248c8.331-8.331 8.331-21.839 0-30.17s-21.839-8.331-30.17 0l-70.248 70.248-70.248-70.248c-8.331-8.331-21.839-8.331-30.17 0-8.331 8.331-8.331 21.839 0 30.17L268.495 256l-70.248 70.248c-8.332 8.332-8.332 21.839-.001 30.17z"/>
    </g>
    <g id="share-icon" fill="#ffffff">
      <path d="M175.897 141.476c-13.249 0-25.11 6.044-32.98 15.518l-51.194-29.066a42.671 42.671 0 0 0 2.467-14.317 42.67 42.67 0 0 0-2.467-14.316l51.19-29.073c7.869 9.477 19.732 15.523 32.982 15.523 23.634 0 42.862-19.235 42.862-42.879C218.759 19.229 199.531 0 175.897 0 152.26 0 133.03 19.229 133.03 42.865c0 5.02.874 9.838 2.467 14.319L84.304 86.258c-7.869-9.472-19.729-15.514-32.975-15.514-23.64 0-42.873 19.229-42.873 42.866 0 23.636 19.233 42.865 42.873 42.865 13.246 0 25.105-6.042 32.974-15.513l51.194 29.067a42.67 42.67 0 0 0-2.468 14.321c0 23.636 19.23 42.865 42.867 42.865 23.634 0 42.862-19.23 42.862-42.865.001-23.64-19.227-42.874-42.861-42.874zm0-126.476c15.363 0 27.862 12.5 27.862 27.865 0 15.373-12.499 27.879-27.862 27.879-15.366 0-27.867-12.506-27.867-27.879C148.03 27.5 160.531 15 175.897 15zM51.33 141.476c-15.369 0-27.873-12.501-27.873-27.865 0-15.366 12.504-27.866 27.873-27.866 15.363 0 27.861 12.5 27.861 27.866 0 15.364-12.499 27.865-27.861 27.865zm124.567 70.74c-15.366 0-27.867-12.501-27.867-27.865 0-15.37 12.501-27.875 27.867-27.875 15.363 0 27.862 12.505 27.862 27.875 0 15.364-12.499 27.865-27.862 27.865z"/>
    </g>
  </defs>
</svg>
